<svg width="396" height="16" viewBox="0 0 396 16" fill="none" xmlns="http://www.w3.org/2000/svg">
<path d="M1.65412 0.363636V12H0.245028V0.363636H1.65412ZM5.63849 6.75V12H4.29759V3.27273H5.59304V4.63636H5.70668C5.91122 4.19318 6.22183 3.83712 6.63849 3.56818C7.05516 3.29545 7.59304 3.15909 8.25213 3.15909C8.84304 3.15909 9.36009 3.2803 9.80327 3.52273C10.2464 3.76136 10.5911 4.125 10.8374 4.61364C11.0836 5.09848 11.2067 5.71212 11.2067 6.45455V12H9.86577V6.54545C9.86577 5.85985 9.68774 5.32576 9.33168 4.94318C8.97562 4.55682 8.48698 4.36364 7.86577 4.36364C7.43774 4.36364 7.05516 4.45644 6.71804 4.64205C6.38471 4.82765 6.12145 5.09848 5.92827 5.45455C5.73509 5.81061 5.63849 6.24242 5.63849 6.75ZM17.1797 15.4545C16.532 15.4545 15.9751 15.3712 15.5092 15.2045C15.0433 15.0417 14.6551 14.8258 14.3445 14.5568C14.0376 14.2917 13.7933 14.0076 13.6115 13.7045L14.6797 12.9545C14.8009 13.1136 14.9543 13.2955 15.1399 13.5C15.3255 13.7083 15.5793 13.8883 15.9013 14.0398C16.227 14.1951 16.6532 14.2727 17.1797 14.2727C17.8842 14.2727 18.4657 14.1023 18.924 13.7614C19.3823 13.4205 19.6115 12.8864 19.6115 12.1591V10.3864H19.4979C19.3994 10.5455 19.2592 10.7424 19.0774 10.9773C18.8994 11.2083 18.6418 11.4148 18.3047 11.5966C17.9714 11.7746 17.5206 11.8636 16.9524 11.8636C16.2479 11.8636 15.6153 11.697 15.0547 11.3636C14.4979 11.0303 14.0566 10.5455 13.7308 9.90909C13.4089 9.27273 13.2479 8.5 13.2479 7.59091C13.2479 6.69697 13.4051 5.91856 13.7195 5.25568C14.0339 4.58901 14.4714 4.07386 15.032 3.71023C15.5926 3.3428 16.2403 3.15909 16.9751 3.15909C17.5433 3.15909 17.9941 3.25379 18.3274 3.44318C18.6645 3.62879 18.9221 3.84091 19.1001 4.07955C19.282 4.31439 19.4221 4.50758 19.5206 4.65909H19.657V3.27273H20.9524V12.25C20.9524 13 20.782 13.6098 20.4411 14.0795C20.1039 14.553 19.6494 14.8996 19.0774 15.1193C18.5092 15.3428 17.8767 15.4545 17.1797 15.4545ZM17.1342 10.6591C17.6721 10.6591 18.1267 10.536 18.4979 10.2898C18.8691 10.0436 19.1513 9.68939 19.3445 9.22727C19.5376 8.76515 19.6342 8.21212 19.6342 7.56818C19.6342 6.93939 19.5395 6.38447 19.3501 5.90341C19.1607 5.42235 18.8804 5.04545 18.5092 4.77273C18.138 4.5 17.6797 4.36364 17.1342 4.36364C16.5661 4.36364 16.0926 4.50758 15.7138 4.79545C15.3388 5.08333 15.0566 5.4697 14.8672 5.95455C14.6816 6.43939 14.5888 6.97727 14.5888 7.56818C14.5888 8.17424 14.6835 8.71023 14.8729 9.17614C15.0661 9.63826 15.3501 10.0019 15.7251 10.267C16.1039 10.5284 16.5736 10.6591 17.1342 10.6591ZM23.407 12V3.27273H24.7024V4.59091H24.7933C24.9524 4.15909 25.2403 3.80871 25.657 3.53977C26.0736 3.27083 26.5433 3.13636 27.0661 3.13636C27.1645 3.13636 27.2876 3.13826 27.4354 3.14205C27.5831 3.14583 27.6948 3.15152 27.7706 3.15909V4.52273C27.7251 4.51136 27.621 4.49432 27.4581 4.47159C27.299 4.44508 27.1304 4.43182 26.9524 4.43182C26.5282 4.43182 26.1494 4.52083 25.8161 4.69886C25.4865 4.87311 25.2251 5.11553 25.032 5.42614C24.8426 5.73295 24.7479 6.08333 24.7479 6.47727V12H23.407ZM32.7536 12.1818C31.9126 12.1818 31.1873 11.9962 30.5774 11.625C29.9714 11.25 29.5036 10.7273 29.174 10.0568C28.8482 9.38258 28.6854 8.59848 28.6854 7.70455C28.6854 6.81061 28.8482 6.02273 29.174 5.34091C29.5036 4.6553 29.9619 4.12121 30.549 3.73864C31.1399 3.35227 31.8293 3.15909 32.6172 3.15909C33.0717 3.15909 33.5206 3.23485 33.9638 3.38636C34.407 3.53788 34.8104 3.78409 35.174 4.125C35.5376 4.46212 35.8274 4.90909 36.0433 5.46591C36.2592 6.02273 36.3672 6.70833 36.3672 7.52273V8.09091H29.6399V6.93182H35.0036C35.0036 6.43939 34.9051 6 34.7081 5.61364C34.5149 5.22727 34.2384 4.92235 33.8786 4.69886C33.5225 4.47538 33.102 4.36364 32.6172 4.36364C32.0831 4.36364 31.621 4.49621 31.2308 4.76136C30.8445 5.02273 30.5471 5.36364 30.3388 5.78409C30.1304 6.20455 30.0263 6.6553 30.0263 7.13636V7.90909C30.0263 8.56818 30.1399 9.12689 30.3672 9.58523C30.5982 10.0398 30.9183 10.3864 31.3274 10.625C31.7365 10.8598 32.2119 10.9773 32.7536 10.9773C33.1058 10.9773 33.424 10.928 33.7081 10.8295C33.996 10.7273 34.2441 10.5758 34.4524 10.375C34.6607 10.1705 34.8217 9.91667 34.9354 9.61364L36.2308 9.97727C36.0945 10.4167 35.8653 10.803 35.5433 11.1364C35.2214 11.4659 34.8236 11.7235 34.3501 11.9091C33.8767 12.0909 33.3445 12.1818 32.7536 12.1818ZM44.5888 5.22727L43.3842 5.56818C43.3085 5.36742 43.1967 5.17235 43.049 4.98295C42.9051 4.78977 42.7081 4.63068 42.4581 4.50568C42.2081 4.38068 41.888 4.31818 41.4979 4.31818C40.9638 4.31818 40.5187 4.44129 40.1626 4.6875C39.8104 4.92992 39.6342 5.23864 39.6342 5.61364C39.6342 5.94697 39.7554 6.21023 39.9979 6.40341C40.2403 6.59659 40.6191 6.75758 41.1342 6.88636L42.4297 7.20455C43.21 7.39394 43.7914 7.68371 44.174 8.07386C44.5566 8.46023 44.7479 8.95833 44.7479 9.56818C44.7479 10.0682 44.6039 10.5152 44.3161 10.9091C44.032 11.303 43.6342 11.6136 43.1229 11.8409C42.6115 12.0682 42.0168 12.1818 41.3388 12.1818C40.4486 12.1818 39.7119 11.9886 39.1286 11.6023C38.5452 11.2159 38.1759 10.6515 38.0206 9.90909L39.2933 9.59091C39.4145 10.0606 39.6437 10.4129 39.9808 10.6477C40.3217 10.8826 40.7668 11 41.3161 11C41.9411 11 42.4373 10.8674 42.8047 10.6023C43.1759 10.3333 43.3615 10.0114 43.3615 9.63636C43.3615 9.33333 43.2554 9.07955 43.0433 8.875C42.8312 8.66667 42.5054 8.51136 42.0661 8.40909L40.6115 8.06818C39.8123 7.87879 39.2251 7.58523 38.8501 7.1875C38.4789 6.78598 38.2933 6.28409 38.2933 5.68182C38.2933 5.18939 38.4316 4.75379 38.7081 4.375C38.9884 3.99621 39.3691 3.69886 39.8501 3.48295C40.335 3.26705 40.8842 3.15909 41.4979 3.15909C42.3615 3.15909 43.0395 3.34848 43.532 3.72727C44.0282 4.10606 44.3804 4.60606 44.5888 5.22727ZM49.3345 12.2045C48.7815 12.2045 48.2796 12.1004 47.8288 11.892C47.3781 11.6799 47.0201 11.375 46.755 10.9773C46.4898 10.5758 46.3572 10.0909 46.3572 9.52273C46.3572 9.02273 46.4557 8.61742 46.6527 8.30682C46.8497 7.99242 47.1129 7.74621 47.4425 7.56818C47.772 7.39015 48.1357 7.25758 48.5334 7.17045C48.9349 7.07955 49.3383 7.00758 49.7436 6.95455C50.2739 6.88636 50.7038 6.83523 51.0334 6.80114C51.3667 6.76326 51.6091 6.70076 51.7607 6.61364C51.916 6.52652 51.9936 6.375 51.9936 6.15909V6.11364C51.9936 5.55303 51.8402 5.11742 51.5334 4.80682C51.2304 4.49621 50.7701 4.34091 50.1527 4.34091C49.5125 4.34091 49.0107 4.48106 48.647 4.76136C48.2834 5.04167 48.0277 5.34091 47.88 5.65909L46.6072 5.20455C46.8345 4.67424 47.1375 4.26136 47.5163 3.96591C47.8989 3.66667 48.3156 3.45833 48.7663 3.34091C49.2209 3.2197 49.6679 3.15909 50.1072 3.15909C50.3875 3.15909 50.7095 3.19318 51.0732 3.26136C51.4406 3.32576 51.7947 3.46023 52.1357 3.66477C52.4804 3.86932 52.7663 4.17803 52.9936 4.59091C53.2209 5.00379 53.3345 5.55682 53.3345 6.25V12H51.9936V10.8182H51.9254C51.8345 11.0076 51.683 11.2102 51.4709 11.4261C51.2588 11.642 50.9766 11.8258 50.6243 11.9773C50.272 12.1288 49.8421 12.2045 49.3345 12.2045ZM49.5391 11C50.0694 11 50.5163 10.8958 50.88 10.6875C51.2474 10.4792 51.5239 10.2102 51.7095 9.88068C51.8989 9.55114 51.9936 9.20455 51.9936 8.84091V7.61364C51.9368 7.68182 51.8118 7.74432 51.6186 7.80114C51.4292 7.85417 51.2095 7.90151 50.9595 7.94318C50.7133 7.98106 50.4728 8.01515 50.2379 8.04545C50.0069 8.07197 49.8194 8.0947 49.6754 8.11364C49.3269 8.15909 49.0012 8.23295 48.6982 8.33523C48.3989 8.43371 48.1565 8.58333 47.9709 8.78409C47.7891 8.98106 47.6982 9.25 47.6982 9.59091C47.6982 10.0568 47.8705 10.4091 48.2152 10.6477C48.5637 10.8826 49.005 11 49.5391 11ZM63.9411 12.1818C63.1001 12.1818 62.3748 11.9962 61.7649 11.625C61.1589 11.25 60.6911 10.7273 60.3615 10.0568C60.0357 9.38258 59.8729 8.59848 59.8729 7.70455C59.8729 6.81061 60.0357 6.02273 60.3615 5.34091C60.6911 4.6553 61.1494 4.12121 61.7365 3.73864C62.3274 3.35227 63.0168 3.15909 63.8047 3.15909C64.2592 3.15909 64.7081 3.23485 65.1513 3.38636C65.5945 3.53788 65.9979 3.78409 66.3615 4.125C66.7251 4.46212 67.0149 4.90909 67.2308 5.46591C67.4467 6.02273 67.5547 6.70833 67.5547 7.52273V8.09091H60.8274V6.93182H66.1911C66.1911 6.43939 66.0926 6 65.8956 5.61364C65.7024 5.22727 65.4259 4.92235 65.0661 4.69886C64.71 4.47538 64.2895 4.36364 63.8047 4.36364C63.2706 4.36364 62.8085 4.49621 62.4183 4.76136C62.032 5.02273 61.7346 5.36364 61.5263 5.78409C61.3179 6.20455 61.2138 6.6553 61.2138 7.13636V7.90909C61.2138 8.56818 61.3274 9.12689 61.5547 9.58523C61.7857 10.0398 62.1058 10.3864 62.5149 10.625C62.924 10.8598 63.3994 10.9773 63.9411 10.9773C64.2933 10.9773 64.6115 10.928 64.8956 10.8295C65.1835 10.7273 65.4316 10.5758 65.6399 10.375C65.8482 10.1705 66.0092 9.91667 66.1229 9.61364L67.4183 9.97727C67.282 10.4167 67.0528 10.803 66.7308 11.1364C66.4089 11.4659 66.0111 11.7235 65.5376 11.9091C65.0642 12.0909 64.532 12.1818 63.9411 12.1818ZM70.9354 0.363636V12H69.5945V0.363636H70.9354ZM81.6868 3.27273V4.40909H77.1641V3.27273H81.6868ZM78.4822 1.18182H79.8232V9.5C79.8232 9.87879 79.8781 10.1629 79.9879 10.3523C80.1016 10.5379 80.2455 10.6629 80.4197 10.7273C80.5978 10.7879 80.7853 10.8182 80.9822 10.8182C81.13 10.8182 81.2512 10.8106 81.3459 10.7955C81.4406 10.7765 81.5163 10.7614 81.5732 10.75L81.8459 11.9545C81.755 11.9886 81.6281 12.0227 81.4652 12.0568C81.3023 12.0947 81.0959 12.1136 80.8459 12.1136C80.4671 12.1136 80.0959 12.0322 79.7322 11.8693C79.3724 11.7064 79.0732 11.4583 78.8345 11.125C78.5997 10.7917 78.4822 10.3712 78.4822 9.86364V1.18182ZM87.2692 12.1818C86.4283 12.1818 85.7029 11.9962 85.093 11.625C84.487 11.25 84.0192 10.7273 83.6896 10.0568C83.3639 9.38258 83.201 8.59848 83.201 7.70455C83.201 6.81061 83.3639 6.02273 83.6896 5.34091C84.0192 4.6553 84.4775 4.12121 85.0646 3.73864C85.6555 3.35227 86.3449 3.15909 87.1328 3.15909C87.5874 3.15909 88.0362 3.23485 88.4794 3.38636C88.9226 3.53788 89.326 3.78409 89.6896 4.125C90.0533 4.46212 90.343 4.90909 90.5589 5.46591C90.7749 6.02273 90.8828 6.70833 90.8828 7.52273V8.09091H84.1555V6.93182H89.5192C89.5192 6.43939 89.4207 6 89.2237 5.61364C89.0305 5.22727 88.754 4.92235 88.3942 4.69886C88.0381 4.47538 87.6177 4.36364 87.1328 4.36364C86.5987 4.36364 86.1366 4.49621 85.7464 4.76136C85.3601 5.02273 85.0627 5.36364 84.8544 5.78409C84.6461 6.20455 84.5419 6.6553 84.5419 7.13636V7.90909C84.5419 8.56818 84.6555 9.12689 84.8828 9.58523C85.1139 10.0398 85.4339 10.3864 85.843 10.625C86.2521 10.8598 86.7275 10.9773 87.2692 10.9773C87.6214 10.9773 87.9396 10.928 88.2237 10.8295C88.5116 10.7273 88.7597 10.5758 88.968 10.375C89.1764 10.1705 89.3374 9.91667 89.451 9.61364L90.7464 9.97727C90.6101 10.4167 90.3809 10.803 90.0589 11.1364C89.737 11.4659 89.3393 11.7235 88.8658 11.9091C88.3923 12.0909 87.8601 12.1818 87.2692 12.1818ZM93.6882 3.27273L95.7791 6.84091L97.87 3.27273H99.4155L96.5973 7.63636L99.4155 12H97.87L95.7791 8.61364L93.6882 12H92.1428L94.9155 7.63636L92.1428 3.27273H93.6882ZM105.124 3.27273V4.40909H100.602V3.27273H105.124ZM101.92 1.18182H103.261V9.5C103.261 9.87879 103.316 10.1629 103.425 10.3523C103.539 10.5379 103.683 10.6629 103.857 10.7273C104.035 10.7879 104.223 10.8182 104.42 10.8182C104.567 10.8182 104.689 10.8106 104.783 10.7955C104.878 10.7765 104.954 10.7614 105.011 10.75L105.283 11.9545C105.192 11.9886 105.066 12.0227 104.903 12.0568C104.74 12.0947 104.533 12.1136 104.283 12.1136C103.905 12.1136 103.533 12.0322 103.17 11.8693C102.81 11.7064 102.511 11.4583 102.272 11.125C102.037 10.7917 101.92 10.3712 101.92 9.86364V1.18182ZM110.593 12.1818C109.805 12.1818 109.114 11.9943 108.519 11.6193C107.928 11.2443 107.466 10.7197 107.133 10.0455C106.803 9.37121 106.638 8.58333 106.638 7.68182C106.638 6.77273 106.803 5.97917 107.133 5.30114C107.466 4.62311 107.928 4.09659 108.519 3.72159C109.114 3.34659 109.805 3.15909 110.593 3.15909C111.381 3.15909 112.07 3.34659 112.661 3.72159C113.256 4.09659 113.718 4.62311 114.048 5.30114C114.381 5.97917 114.548 6.77273 114.548 7.68182C114.548 8.58333 114.381 9.37121 114.048 10.0455C113.718 10.7197 113.256 11.2443 112.661 11.6193C112.07 11.9943 111.381 12.1818 110.593 12.1818ZM110.593 10.9773C111.192 10.9773 111.684 10.8239 112.07 10.517C112.457 10.2102 112.743 9.80682 112.928 9.30682C113.114 8.80682 113.207 8.26515 113.207 7.68182C113.207 7.09848 113.114 6.55492 112.928 6.05114C112.743 5.54735 112.457 5.14015 112.07 4.82955C111.684 4.51894 111.192 4.36364 110.593 4.36364C109.995 4.36364 109.502 4.51894 109.116 4.82955C108.729 5.14015 108.443 5.54735 108.258 6.05114C108.072 6.55492 107.979 7.09848 107.979 7.68182C107.979 8.26515 108.072 8.80682 108.258 9.30682C108.443 9.80682 108.729 10.2102 109.116 10.517C109.502 10.8239 109.995 10.9773 110.593 10.9773ZM127.049 15.2727V10.6591H126.935C126.837 10.8182 126.697 11.0189 126.515 11.2614C126.333 11.5 126.074 11.714 125.737 11.9034C125.399 12.089 124.951 12.1818 124.39 12.1818C123.663 12.1818 123.021 11.9981 122.464 11.6307C121.907 11.2595 121.471 10.7367 121.157 10.0625C120.843 9.38447 120.685 8.58333 120.685 7.65909C120.685 6.74242 120.843 5.94697 121.157 5.27273C121.471 4.59848 121.909 4.07765 122.469 3.71023C123.03 3.3428 123.678 3.15909 124.413 3.15909C124.981 3.15909 125.43 3.25379 125.759 3.44318C126.093 3.62879 126.346 3.84091 126.521 4.07955C126.699 4.31439 126.837 4.50758 126.935 4.65909H127.094V3.27273H128.39V15.2727H127.049ZM124.572 10.9773C125.11 10.9773 125.564 10.8371 125.935 10.5568C126.307 10.2727 126.589 9.88068 126.782 9.38068C126.975 8.87689 127.072 8.29545 127.072 7.63636C127.072 6.98485 126.977 6.41477 126.788 5.92614C126.598 5.43371 126.318 5.05114 125.947 4.77841C125.576 4.50189 125.117 4.36364 124.572 4.36364C124.004 4.36364 123.53 4.50947 123.151 4.80114C122.776 5.08902 122.494 5.48106 122.305 5.97727C122.119 6.4697 122.026 7.02273 122.026 7.63636C122.026 8.25758 122.121 8.82197 122.31 9.32955C122.504 9.83333 122.788 10.2348 123.163 10.5341C123.541 10.8295 124.011 10.9773 124.572 10.9773ZM136.344 8.43182V3.27273H137.685V12H136.344V10.5227H136.254C136.049 10.9659 135.731 11.3428 135.299 11.6534C134.867 11.9602 134.322 12.1136 133.663 12.1136C133.117 12.1136 132.632 11.9943 132.208 11.7557C131.784 11.5133 131.451 11.1496 131.208 10.6648C130.966 10.1761 130.844 9.56061 130.844 8.81818V3.27273H132.185V8.72727C132.185 9.36364 132.363 9.87121 132.719 10.25C133.079 10.6288 133.538 10.8182 134.094 10.8182C134.428 10.8182 134.767 10.733 135.112 10.5625C135.46 10.392 135.752 10.1307 135.987 9.77841C136.225 9.42614 136.344 8.97727 136.344 8.43182ZM143.8 12.1818C142.96 12.1818 142.234 11.9962 141.624 11.625C141.018 11.25 140.55 10.7273 140.221 10.0568C139.895 9.38258 139.732 8.59848 139.732 7.70455C139.732 6.81061 139.895 6.02273 140.221 5.34091C140.55 4.6553 141.009 4.12121 141.596 3.73864C142.187 3.35227 142.876 3.15909 143.664 3.15909C144.119 3.15909 144.567 3.23485 145.011 3.38636C145.454 3.53788 145.857 3.78409 146.221 4.125C146.585 4.46212 146.874 4.90909 147.09 5.46591C147.306 6.02273 147.414 6.70833 147.414 7.52273V8.09091H140.687V6.93182H146.05C146.05 6.43939 145.952 6 145.755 5.61364C145.562 5.22727 145.285 4.92235 144.925 4.69886C144.569 4.47538 144.149 4.36364 143.664 4.36364C143.13 4.36364 142.668 4.49621 142.278 4.76136C141.891 5.02273 141.594 5.36364 141.386 5.78409C141.177 6.20455 141.073 6.6553 141.073 7.13636V7.90909C141.073 8.56818 141.187 9.12689 141.414 9.58523C141.645 10.0398 141.965 10.3864 142.374 10.625C142.783 10.8598 143.259 10.9773 143.8 10.9773C144.153 10.9773 144.471 10.928 144.755 10.8295C145.043 10.7273 145.291 10.5758 145.499 10.375C145.708 10.1705 145.869 9.91667 145.982 9.61364L147.278 9.97727C147.141 10.4167 146.912 10.803 146.59 11.1364C146.268 11.4659 145.871 11.7235 145.397 11.9091C144.924 12.0909 144.391 12.1818 143.8 12.1818ZM157.249 12.1818C156.522 12.1818 155.88 11.9981 155.323 11.6307C154.766 11.2595 154.331 10.7367 154.016 10.0625C153.702 9.38447 153.545 8.58333 153.545 7.65909C153.545 6.74242 153.702 5.94697 154.016 5.27273C154.331 4.59848 154.768 4.07765 155.329 3.71023C155.889 3.3428 156.537 3.15909 157.272 3.15909C157.84 3.15909 158.289 3.25379 158.619 3.44318C158.952 3.62879 159.206 3.84091 159.38 4.07955C159.558 4.31439 159.696 4.50758 159.795 4.65909H159.908V0.363636H161.249V12H159.954V10.6591H159.795C159.696 10.8182 159.556 11.0189 159.374 11.2614C159.192 11.5 158.933 11.714 158.596 11.9034C158.259 12.089 157.81 12.1818 157.249 12.1818ZM157.431 10.9773C157.969 10.9773 158.424 10.8371 158.795 10.5568C159.166 10.2727 159.448 9.88068 159.641 9.38068C159.835 8.87689 159.931 8.29545 159.931 7.63636C159.931 6.98485 159.836 6.41477 159.647 5.92614C159.458 5.43371 159.177 5.05114 158.806 4.77841C158.435 4.50189 157.977 4.36364 157.431 4.36364C156.863 4.36364 156.389 4.50947 156.011 4.80114C155.636 5.08902 155.353 5.48106 155.164 5.97727C154.978 6.4697 154.886 7.02273 154.886 7.63636C154.886 8.25758 154.98 8.82197 155.17 9.32955C155.363 9.83333 155.647 10.2348 156.022 10.5341C156.401 10.8295 156.871 10.9773 157.431 10.9773ZM167.55 12.1818C166.71 12.1818 165.984 11.9962 165.374 11.625C164.768 11.25 164.3 10.7273 163.971 10.0568C163.645 9.38258 163.482 8.59848 163.482 7.70455C163.482 6.81061 163.645 6.02273 163.971 5.34091C164.3 4.6553 164.759 4.12121 165.346 3.73864C165.937 3.35227 166.626 3.15909 167.414 3.15909C167.869 3.15909 168.317 3.23485 168.761 3.38636C169.204 3.53788 169.607 3.78409 169.971 4.125C170.335 4.46212 170.624 4.90909 170.84 5.46591C171.056 6.02273 171.164 6.70833 171.164 7.52273V8.09091H164.437V6.93182H169.8C169.8 6.43939 169.702 6 169.505 5.61364C169.312 5.22727 169.035 4.92235 168.675 4.69886C168.319 4.47538 167.899 4.36364 167.414 4.36364C166.88 4.36364 166.418 4.49621 166.028 4.76136C165.641 5.02273 165.344 5.36364 165.136 5.78409C164.927 6.20455 164.823 6.6553 164.823 7.13636V7.90909C164.823 8.56818 164.937 9.12689 165.164 9.58523C165.395 10.0398 165.715 10.3864 166.124 10.625C166.533 10.8598 167.009 10.9773 167.55 10.9773C167.903 10.9773 168.221 10.928 168.505 10.8295C168.793 10.7273 169.041 10.5758 169.249 10.375C169.458 10.1705 169.619 9.91667 169.732 9.61364L171.028 9.97727C170.891 10.4167 170.662 10.803 170.34 11.1364C170.018 11.4659 169.621 11.7235 169.147 11.9091C168.674 12.0909 168.141 12.1818 167.55 12.1818ZM179.386 5.22727L178.181 5.56818C178.105 5.36742 177.994 5.17235 177.846 4.98295C177.702 4.78977 177.505 4.63068 177.255 4.50568C177.005 4.38068 176.685 4.31818 176.295 4.31818C175.761 4.31818 175.316 4.44129 174.96 4.6875C174.607 4.92992 174.431 5.23864 174.431 5.61364C174.431 5.94697 174.552 6.21023 174.795 6.40341C175.037 6.59659 175.416 6.75758 175.931 6.88636L177.227 7.20455C178.007 7.39394 178.588 7.68371 178.971 8.07386C179.353 8.46023 179.545 8.95833 179.545 9.56818C179.545 10.0682 179.401 10.5152 179.113 10.9091C178.829 11.303 178.431 11.6136 177.92 11.8409C177.408 12.0682 176.814 12.1818 176.136 12.1818C175.246 12.1818 174.509 11.9886 173.925 11.6023C173.342 11.2159 172.973 10.6515 172.817 9.90909L174.09 9.59091C174.211 10.0606 174.441 10.4129 174.778 10.6477C175.119 10.8826 175.564 11 176.113 11C176.738 11 177.234 10.8674 177.602 10.6023C177.973 10.3333 178.158 10.0114 178.158 9.63636C178.158 9.33333 178.052 9.07955 177.84 8.875C177.628 8.66667 177.302 8.51136 176.863 8.40909L175.408 8.06818C174.609 7.87879 174.022 7.58523 173.647 7.1875C173.276 6.78598 173.09 6.28409 173.09 5.68182C173.09 5.18939 173.228 4.75379 173.505 4.375C173.785 3.99621 174.166 3.69886 174.647 3.48295C175.132 3.26705 175.681 3.15909 176.295 3.15909C177.158 3.15909 177.836 3.34848 178.329 3.72727C178.825 4.10606 179.177 4.60606 179.386 5.22727ZM185.222 12.1818C184.381 12.1818 183.656 11.9962 183.046 11.625C182.44 11.25 181.972 10.7273 181.643 10.0568C181.317 9.38258 181.154 8.59848 181.154 7.70455C181.154 6.81061 181.317 6.02273 181.643 5.34091C181.972 4.6553 182.431 4.12121 183.018 3.73864C183.609 3.35227 184.298 3.15909 185.086 3.15909C185.54 3.15909 185.989 3.23485 186.433 3.38636C186.876 3.53788 187.279 3.78409 187.643 4.125C188.006 4.46212 188.296 4.90909 188.512 5.46591C188.728 6.02273 188.836 6.70833 188.836 7.52273V8.09091H182.109V6.93182H187.472C187.472 6.43939 187.374 6 187.177 5.61364C186.984 5.22727 186.707 4.92235 186.347 4.69886C185.991 4.47538 185.571 4.36364 185.086 4.36364C184.552 4.36364 184.09 4.49621 183.7 4.76136C183.313 5.02273 183.016 5.36364 182.808 5.78409C182.599 6.20455 182.495 6.6553 182.495 7.13636V7.90909C182.495 8.56818 182.609 9.12689 182.836 9.58523C183.067 10.0398 183.387 10.3864 183.796 10.625C184.205 10.8598 184.681 10.9773 185.222 10.9773C185.575 10.9773 185.893 10.928 186.177 10.8295C186.465 10.7273 186.713 10.5758 186.921 10.375C187.129 10.1705 187.29 9.91667 187.404 9.61364L188.7 9.97727C188.563 10.4167 188.334 10.803 188.012 11.1364C187.69 11.4659 187.292 11.7235 186.819 11.9091C186.345 12.0909 185.813 12.1818 185.222 12.1818ZM194.535 12.1818C193.694 12.1818 192.969 11.9962 192.359 11.625C191.753 11.25 191.285 10.7273 190.955 10.0568C190.629 9.38258 190.467 8.59848 190.467 7.70455C190.467 6.81061 190.629 6.02273 190.955 5.34091C191.285 4.6553 191.743 4.12121 192.33 3.73864C192.921 3.35227 193.611 3.15909 194.398 3.15909C194.853 3.15909 195.302 3.23485 195.745 3.38636C196.188 3.53788 196.592 3.78409 196.955 4.125C197.319 4.46212 197.609 4.90909 197.825 5.46591C198.04 6.02273 198.148 6.70833 198.148 7.52273V8.09091H191.421V6.93182H196.785C196.785 6.43939 196.686 6 196.489 5.61364C196.296 5.22727 196.02 4.92235 195.66 4.69886C195.304 4.47538 194.883 4.36364 194.398 4.36364C193.864 4.36364 193.402 4.49621 193.012 4.76136C192.626 5.02273 192.328 5.36364 192.12 5.78409C191.912 6.20455 191.808 6.6553 191.808 7.13636V7.90909C191.808 8.56818 191.921 9.12689 192.148 9.58523C192.379 10.0398 192.7 10.3864 193.109 10.625C193.518 10.8598 193.993 10.9773 194.535 10.9773C194.887 10.9773 195.205 10.928 195.489 10.8295C195.777 10.7273 196.025 10.5758 196.234 10.375C196.442 10.1705 196.603 9.91667 196.717 9.61364L198.012 9.97727C197.876 10.4167 197.647 10.803 197.325 11.1364C197.003 11.4659 196.605 11.7235 196.131 11.9091C195.658 12.0909 195.126 12.1818 194.535 12.1818ZM206.37 5.22727L205.165 5.56818C205.09 5.36742 204.978 5.17235 204.83 4.98295C204.686 4.78977 204.489 4.63068 204.239 4.50568C203.989 4.38068 203.669 4.31818 203.279 4.31818C202.745 4.31818 202.3 4.44129 201.944 4.6875C201.592 4.92992 201.415 5.23864 201.415 5.61364C201.415 5.94697 201.537 6.21023 201.779 6.40341C202.022 6.59659 202.4 6.75758 202.915 6.88636L204.211 7.20455C204.991 7.39394 205.573 7.68371 205.955 8.07386C206.338 8.46023 206.529 8.95833 206.529 9.56818C206.529 10.0682 206.385 10.5152 206.097 10.9091C205.813 11.303 205.415 11.6136 204.904 11.8409C204.393 12.0682 203.798 12.1818 203.12 12.1818C202.23 12.1818 201.493 11.9886 200.91 11.6023C200.326 11.2159 199.957 10.6515 199.802 9.90909L201.075 9.59091C201.196 10.0606 201.425 10.4129 201.762 10.6477C202.103 10.8826 202.548 11 203.097 11C203.722 11 204.219 10.8674 204.586 10.6023C204.957 10.3333 205.143 10.0114 205.143 9.63636C205.143 9.33333 205.037 9.07955 204.825 8.875C204.612 8.66667 204.287 8.51136 203.847 8.40909L202.393 8.06818C201.594 7.87879 201.006 7.58523 200.631 7.1875C200.26 6.78598 200.075 6.28409 200.075 5.68182C200.075 5.18939 200.213 4.75379 200.489 4.375C200.77 3.99621 201.15 3.69886 201.631 3.48295C202.116 3.26705 202.665 3.15909 203.279 3.15909C204.143 3.15909 204.821 3.34848 205.313 3.72727C205.809 4.10606 206.162 4.60606 206.37 5.22727ZM216.707 12.1818C215.866 12.1818 215.14 11.9962 214.531 11.625C213.924 11.25 213.457 10.7273 213.127 10.0568C212.801 9.38258 212.638 8.59848 212.638 7.70455C212.638 6.81061 212.801 6.02273 213.127 5.34091C213.457 4.6553 213.915 4.12121 214.502 3.73864C215.093 3.35227 215.782 3.15909 216.57 3.15909C217.025 3.15909 217.474 3.23485 217.917 3.38636C218.36 3.53788 218.763 3.78409 219.127 4.125C219.491 4.46212 219.781 4.90909 219.996 5.46591C220.212 6.02273 220.32 6.70833 220.32 7.52273V8.09091H213.593V6.93182H218.957C218.957 6.43939 218.858 6 218.661 5.61364C218.468 5.22727 218.192 4.92235 217.832 4.69886C217.476 4.47538 217.055 4.36364 216.57 4.36364C216.036 4.36364 215.574 4.49621 215.184 4.76136C214.798 5.02273 214.5 5.36364 214.292 5.78409C214.084 6.20455 213.979 6.6553 213.979 7.13636V7.90909C213.979 8.56818 214.093 9.12689 214.32 9.58523C214.551 10.0398 214.871 10.3864 215.281 10.625C215.69 10.8598 216.165 10.9773 216.707 10.9773C217.059 10.9773 217.377 10.928 217.661 10.8295C217.949 10.7273 218.197 10.5758 218.406 10.375C218.614 10.1705 218.775 9.91667 218.888 9.61364L220.184 9.97727C220.048 10.4167 219.818 10.803 219.496 11.1364C219.174 11.4659 218.777 11.7235 218.303 11.9091C217.83 12.0909 217.298 12.1818 216.707 12.1818ZM223.701 6.75V12H222.36V3.27273H223.656V4.63636H223.769C223.974 4.19318 224.284 3.83712 224.701 3.56818C225.118 3.29545 225.656 3.15909 226.315 3.15909C226.906 3.15909 227.423 3.2803 227.866 3.52273C228.309 3.76136 228.654 4.125 228.9 4.61364C229.146 5.09848 229.269 5.71212 229.269 6.45455V12H227.928V6.54545C227.928 5.85985 227.75 5.32576 227.394 4.94318C227.038 4.55682 226.549 4.36364 225.928 4.36364C225.5 4.36364 225.118 4.45644 224.781 4.64205C224.447 4.82765 224.184 5.09848 223.991 5.45455C223.798 5.81061 223.701 6.24242 223.701 6.75ZM235.265 12.1818C234.447 12.1818 233.742 11.9886 233.151 11.6023C232.56 11.2159 232.106 10.6837 231.788 10.0057C231.469 9.32765 231.31 8.55303 231.31 7.68182C231.31 6.79545 231.473 6.01326 231.799 5.33523C232.129 4.65341 232.587 4.12121 233.174 3.73864C233.765 3.35227 234.454 3.15909 235.242 3.15909C235.856 3.15909 236.409 3.27273 236.901 3.5C237.394 3.72727 237.797 4.04545 238.112 4.45455C238.426 4.86364 238.621 5.34091 238.697 5.88636H237.356C237.254 5.48864 237.026 5.13636 236.674 4.82955C236.326 4.51894 235.856 4.36364 235.265 4.36364C234.742 4.36364 234.284 4.5 233.89 4.77273C233.5 5.04167 233.195 5.42235 232.975 5.91477C232.759 6.40341 232.651 6.97727 232.651 7.63636C232.651 8.31061 232.757 8.89773 232.969 9.39773C233.185 9.89773 233.488 10.286 233.879 10.5625C234.272 10.839 234.735 10.9773 235.265 10.9773C235.613 10.9773 235.93 10.9167 236.214 10.7955C236.498 10.6742 236.738 10.5 236.935 10.2727C237.132 10.0455 237.272 9.77273 237.356 9.45455H238.697C238.621 9.9697 238.433 10.4337 238.134 10.8466C237.839 11.2557 237.447 11.5814 236.958 11.8239C236.473 12.0625 235.909 12.1818 235.265 12.1818ZM240.657 12V3.27273H241.952V4.59091H242.043C242.202 4.15909 242.49 3.80871 242.907 3.53977C243.324 3.27083 243.793 3.13636 244.316 3.13636C244.415 3.13636 244.538 3.13826 244.685 3.14205C244.833 3.14583 244.945 3.15152 245.021 3.15909V4.52273C244.975 4.51136 244.871 4.49432 244.708 4.47159C244.549 4.44508 244.38 4.43182 244.202 4.43182C243.778 4.43182 243.399 4.52083 243.066 4.69886C242.737 4.87311 242.475 5.11553 242.282 5.42614C242.093 5.73295 241.998 6.08333 241.998 6.47727V12H240.657ZM246.61 12V3.27273H247.951V12H246.61ZM247.292 1.81818C247.031 1.81818 246.805 1.72917 246.616 1.55114C246.43 1.37311 246.337 1.15909 246.337 0.909091C246.337 0.659091 246.43 0.445076 246.616 0.267045C246.805 0.089015 247.031 0 247.292 0C247.553 0 247.777 0.089015 247.962 0.267045C248.152 0.445076 248.246 0.659091 248.246 0.909091C248.246 1.15909 248.152 1.37311 247.962 1.55114C247.777 1.72917 247.553 1.81818 247.292 1.81818ZM250.407 15.2727V3.27273H251.702V4.65909H251.862C251.96 4.50758 252.096 4.31439 252.271 4.07955C252.449 3.84091 252.702 3.62879 253.032 3.44318C253.365 3.25379 253.816 3.15909 254.384 3.15909C255.119 3.15909 255.767 3.3428 256.327 3.71023C256.888 4.07765 257.326 4.59848 257.64 5.27273C257.954 5.94697 258.112 6.74242 258.112 7.65909C258.112 8.58333 257.954 9.38447 257.64 10.0625C257.326 10.7367 256.89 11.2595 256.333 11.6307C255.776 11.9981 255.134 12.1818 254.407 12.1818C253.846 12.1818 253.397 12.089 253.06 11.9034C252.723 11.714 252.464 11.5 252.282 11.2614C252.1 11.0189 251.96 10.8182 251.862 10.6591H251.748V15.2727H250.407ZM251.725 7.63636C251.725 8.29545 251.822 8.87689 252.015 9.38068C252.208 9.88068 252.49 10.2727 252.862 10.5568C253.233 10.8371 253.687 10.9773 254.225 10.9773C254.786 10.9773 255.254 10.8295 255.629 10.5341C256.007 10.2348 256.291 9.83333 256.481 9.32955C256.674 8.82197 256.771 8.25758 256.771 7.63636C256.771 7.02273 256.676 6.4697 256.487 5.97727C256.301 5.48106 256.019 5.08902 255.64 4.80114C255.265 4.50947 254.793 4.36364 254.225 4.36364C253.68 4.36364 253.221 4.50189 252.85 4.77841C252.479 5.05114 252.199 5.43371 252.009 5.92614C251.82 6.41477 251.725 6.98485 251.725 7.63636ZM263.952 3.27273V4.40909H259.43V3.27273H263.952ZM260.748 1.18182H262.089V9.5C262.089 9.87879 262.144 10.1629 262.254 10.3523C262.367 10.5379 262.511 10.6629 262.685 10.7273C262.863 10.7879 263.051 10.8182 263.248 10.8182C263.396 10.8182 263.517 10.8106 263.612 10.7955C263.706 10.7765 263.782 10.7614 263.839 10.75L264.112 11.9545C264.021 11.9886 263.894 12.0227 263.731 12.0568C263.568 12.0947 263.362 12.1136 263.112 12.1136C262.733 12.1136 262.362 12.0322 261.998 11.8693C261.638 11.7064 261.339 11.4583 261.1 11.125C260.865 10.7917 260.748 10.3712 260.748 9.86364V1.18182ZM268.538 12.2045C267.985 12.2045 267.483 12.1004 267.032 11.892C266.581 11.6799 266.223 11.375 265.958 10.9773C265.693 10.5758 265.56 10.0909 265.56 9.52273C265.56 9.02273 265.659 8.61742 265.856 8.30682C266.053 7.99242 266.316 7.74621 266.646 7.56818C266.975 7.39015 267.339 7.25758 267.737 7.17045C268.138 7.07955 268.541 7.00758 268.947 6.95455C269.477 6.88636 269.907 6.83523 270.237 6.80114C270.57 6.76326 270.812 6.70076 270.964 6.61364C271.119 6.52652 271.197 6.375 271.197 6.15909V6.11364C271.197 5.55303 271.043 5.11742 270.737 4.80682C270.433 4.49621 269.973 4.34091 269.356 4.34091C268.716 4.34091 268.214 4.48106 267.85 4.76136C267.487 5.04167 267.231 5.34091 267.083 5.65909L265.81 5.20455C266.038 4.67424 266.341 4.26136 266.719 3.96591C267.102 3.66667 267.519 3.45833 267.969 3.34091C268.424 3.2197 268.871 3.15909 269.31 3.15909C269.591 3.15909 269.913 3.19318 270.276 3.26136C270.644 3.32576 270.998 3.46023 271.339 3.66477C271.683 3.86932 271.969 4.17803 272.197 4.59091C272.424 5.00379 272.538 5.55682 272.538 6.25V12H271.197V10.8182H271.129C271.038 11.0076 270.886 11.2102 270.674 11.4261C270.462 11.642 270.18 11.8258 269.827 11.9773C269.475 12.1288 269.045 12.2045 268.538 12.2045ZM268.742 11C269.272 11 269.719 10.8958 270.083 10.6875C270.451 10.4792 270.727 10.2102 270.913 9.88068C271.102 9.55114 271.197 9.20455 271.197 8.84091V7.61364C271.14 7.68182 271.015 7.74432 270.822 7.80114C270.632 7.85417 270.413 7.90151 270.163 7.94318C269.916 7.98106 269.676 8.01515 269.441 8.04545C269.21 8.07197 269.022 8.0947 268.879 8.11364C268.53 8.15909 268.204 8.23295 267.901 8.33523C267.602 8.43371 267.36 8.58333 267.174 8.78409C266.992 8.98106 266.901 9.25 266.901 9.59091C266.901 10.0568 267.074 10.4091 267.418 10.6477C267.767 10.8826 268.208 11 268.742 11ZM274.985 12V3.27273H276.281V4.59091H276.371C276.531 4.15909 276.818 3.80871 277.235 3.53977C277.652 3.27083 278.121 3.13636 278.644 3.13636C278.743 3.13636 278.866 3.13826 279.013 3.14205C279.161 3.14583 279.273 3.15152 279.349 3.15909V4.52273C279.303 4.51136 279.199 4.49432 279.036 4.47159C278.877 4.44508 278.709 4.43182 278.531 4.43182C278.106 4.43182 277.728 4.52083 277.394 4.69886C277.065 4.87311 276.803 5.11553 276.61 5.42614C276.421 5.73295 276.326 6.08333 276.326 6.47727V12H274.985ZM288.984 12.1818C288.196 12.1818 287.504 11.9943 286.91 11.6193C286.319 11.2443 285.857 10.7197 285.523 10.0455C285.194 9.37121 285.029 8.58333 285.029 7.68182C285.029 6.77273 285.194 5.97917 285.523 5.30114C285.857 4.62311 286.319 4.09659 286.91 3.72159C287.504 3.34659 288.196 3.15909 288.984 3.15909C289.772 3.15909 290.461 3.34659 291.052 3.72159C291.647 4.09659 292.109 4.62311 292.438 5.30114C292.772 5.97917 292.938 6.77273 292.938 7.68182C292.938 8.58333 292.772 9.37121 292.438 10.0455C292.109 10.7197 291.647 11.2443 291.052 11.6193C290.461 11.9943 289.772 12.1818 288.984 12.1818ZM288.984 10.9773C289.582 10.9773 290.075 10.8239 290.461 10.517C290.847 10.2102 291.133 9.80682 291.319 9.30682C291.504 8.80682 291.597 8.26515 291.597 7.68182C291.597 7.09848 291.504 6.55492 291.319 6.05114C291.133 5.54735 290.847 5.14015 290.461 4.82955C290.075 4.51894 289.582 4.36364 288.984 4.36364C288.385 4.36364 287.893 4.51894 287.506 4.82955C287.12 5.14015 286.834 5.54735 286.648 6.05114C286.463 6.55492 286.37 7.09848 286.37 7.68182C286.37 8.26515 286.463 8.80682 286.648 9.30682C286.834 9.80682 287.12 10.2102 287.506 10.517C287.893 10.8239 288.385 10.9773 288.984 10.9773ZM302.781 12.1818C302.053 12.1818 301.411 11.9981 300.854 11.6307C300.298 11.2595 299.862 10.7367 299.548 10.0625C299.233 9.38447 299.076 8.58333 299.076 7.65909C299.076 6.74242 299.233 5.94697 299.548 5.27273C299.862 4.59848 300.299 4.07765 300.86 3.71023C301.421 3.3428 302.068 3.15909 302.803 3.15909C303.371 3.15909 303.82 3.25379 304.15 3.44318C304.483 3.62879 304.737 3.84091 304.911 4.07955C305.089 4.31439 305.228 4.50758 305.326 4.65909H305.44V0.363636H306.781V12H305.485V10.6591H305.326C305.228 10.8182 305.087 11.0189 304.906 11.2614C304.724 11.5 304.464 11.714 304.127 11.9034C303.79 12.089 303.341 12.1818 302.781 12.1818ZM302.962 10.9773C303.5 10.9773 303.955 10.8371 304.326 10.5568C304.697 10.2727 304.979 9.88068 305.173 9.38068C305.366 8.87689 305.462 8.29545 305.462 7.63636C305.462 6.98485 305.368 6.41477 305.178 5.92614C304.989 5.43371 304.709 5.05114 304.337 4.77841C303.966 4.50189 303.508 4.36364 302.962 4.36364C302.394 4.36364 301.921 4.50947 301.542 4.80114C301.167 5.08902 300.885 5.48106 300.695 5.97727C300.51 6.4697 300.417 7.02273 300.417 7.63636C300.417 8.25758 300.512 8.82197 300.701 9.32955C300.894 9.83333 301.178 10.2348 301.553 10.5341C301.932 10.8295 302.402 10.9773 302.962 10.9773ZM313.082 12.1818C312.241 12.1818 311.515 11.9962 310.906 11.625C310.299 11.25 309.832 10.7273 309.502 10.0568C309.176 9.38258 309.013 8.59848 309.013 7.70455C309.013 6.81061 309.176 6.02273 309.502 5.34091C309.832 4.6553 310.29 4.12121 310.877 3.73864C311.468 3.35227 312.157 3.15909 312.945 3.15909C313.4 3.15909 313.849 3.23485 314.292 3.38636C314.735 3.53788 315.138 3.78409 315.502 4.125C315.866 4.46212 316.156 4.90909 316.371 5.46591C316.587 6.02273 316.695 6.70833 316.695 7.52273V8.09091H309.968V6.93182H315.332C315.332 6.43939 315.233 6 315.036 5.61364C314.843 5.22727 314.567 4.92235 314.207 4.69886C313.851 4.47538 313.43 4.36364 312.945 4.36364C312.411 4.36364 311.949 4.49621 311.559 4.76136C311.173 5.02273 310.875 5.36364 310.667 5.78409C310.459 6.20455 310.354 6.6553 310.354 7.13636V7.90909C310.354 8.56818 310.468 9.12689 310.695 9.58523C310.926 10.0398 311.246 10.3864 311.656 10.625C312.065 10.8598 312.54 10.9773 313.082 10.9773C313.434 10.9773 313.752 10.928 314.036 10.8295C314.324 10.7273 314.572 10.5758 314.781 10.375C314.989 10.1705 315.15 9.91667 315.263 9.61364L316.559 9.97727C316.423 10.4167 316.193 10.803 315.871 11.1364C315.549 11.4659 315.152 11.7235 314.678 11.9091C314.205 12.0909 313.673 12.1818 313.082 12.1818ZM324.917 5.22727L323.712 5.56818C323.637 5.36742 323.525 5.17235 323.377 4.98295C323.233 4.78977 323.036 4.63068 322.786 4.50568C322.536 4.38068 322.216 4.31818 321.826 4.31818C321.292 4.31818 320.847 4.44129 320.491 4.6875C320.138 4.92992 319.962 5.23864 319.962 5.61364C319.962 5.94697 320.084 6.21023 320.326 6.40341C320.568 6.59659 320.947 6.75758 321.462 6.88636L322.758 7.20455C323.538 7.39394 324.12 7.68371 324.502 8.07386C324.885 8.46023 325.076 8.95833 325.076 9.56818C325.076 10.0682 324.932 10.5152 324.644 10.9091C324.36 11.303 323.962 11.6136 323.451 11.8409C322.94 12.0682 322.345 12.1818 321.667 12.1818C320.777 12.1818 320.04 11.9886 319.457 11.6023C318.873 11.2159 318.504 10.6515 318.349 9.90909L319.621 9.59091C319.743 10.0606 319.972 10.4129 320.309 10.6477C320.65 10.8826 321.095 11 321.644 11C322.269 11 322.765 10.8674 323.133 10.6023C323.504 10.3333 323.69 10.0114 323.69 9.63636C323.69 9.33333 323.584 9.07955 323.371 8.875C323.159 8.66667 322.834 8.51136 322.394 8.40909L320.94 8.06818C320.14 7.87879 319.553 7.58523 319.178 7.1875C318.807 6.78598 318.621 6.28409 318.621 5.68182C318.621 5.18939 318.76 4.75379 319.036 4.375C319.317 3.99621 319.697 3.69886 320.178 3.48295C320.663 3.26705 321.212 3.15909 321.826 3.15909C322.69 3.15909 323.368 3.34848 323.86 3.72727C324.356 4.10606 324.709 4.60606 324.917 5.22727ZM330.754 12.1818C329.913 12.1818 329.187 11.9962 328.577 11.625C327.971 11.25 327.504 10.7273 327.174 10.0568C326.848 9.38258 326.685 8.59848 326.685 7.70455C326.685 6.81061 326.848 6.02273 327.174 5.34091C327.504 4.6553 327.962 4.12121 328.549 3.73864C329.14 3.35227 329.829 3.15909 330.617 3.15909C331.072 3.15909 331.521 3.23485 331.964 3.38636C332.407 3.53788 332.81 3.78409 333.174 4.125C333.538 4.46212 333.827 4.90909 334.043 5.46591C334.259 6.02273 334.367 6.70833 334.367 7.52273V8.09091H327.64V6.93182H333.004C333.004 6.43939 332.905 6 332.708 5.61364C332.515 5.22727 332.238 4.92235 331.879 4.69886C331.522 4.47538 331.102 4.36364 330.617 4.36364C330.083 4.36364 329.621 4.49621 329.231 4.76136C328.844 5.02273 328.547 5.36364 328.339 5.78409C328.13 6.20455 328.026 6.6553 328.026 7.13636V7.90909C328.026 8.56818 328.14 9.12689 328.367 9.58523C328.598 10.0398 328.918 10.3864 329.327 10.625C329.737 10.8598 330.212 10.9773 330.754 10.9773C331.106 10.9773 331.424 10.928 331.708 10.8295C331.996 10.7273 332.244 10.5758 332.452 10.375C332.661 10.1705 332.822 9.91667 332.935 9.61364L334.231 9.97727C334.094 10.4167 333.865 10.803 333.543 11.1364C333.221 11.4659 332.824 11.7235 332.35 11.9091C331.877 12.0909 331.344 12.1818 330.754 12.1818ZM337.748 6.75V12H336.407V3.27273H337.702V4.63636H337.816C338.021 4.19318 338.331 3.83712 338.748 3.56818C339.165 3.29545 339.702 3.15909 340.362 3.15909C340.952 3.15909 341.469 3.2803 341.913 3.52273C342.356 3.76136 342.701 4.125 342.947 4.61364C343.193 5.09848 343.316 5.71212 343.316 6.45455V12H341.975V6.54545C341.975 5.85985 341.797 5.32576 341.441 4.94318C341.085 4.55682 340.596 4.36364 339.975 4.36364C339.547 4.36364 339.165 4.45644 338.827 4.64205C338.494 4.82765 338.231 5.09848 338.038 5.45455C337.844 5.81061 337.748 6.24242 337.748 6.75ZM349.312 12.1818C348.494 12.1818 347.789 11.9886 347.198 11.6023C346.607 11.2159 346.153 10.6837 345.835 10.0057C345.516 9.32765 345.357 8.55303 345.357 7.68182C345.357 6.79545 345.52 6.01326 345.846 5.33523C346.175 4.65341 346.634 4.12121 347.221 3.73864C347.812 3.35227 348.501 3.15909 349.289 3.15909C349.903 3.15909 350.456 3.27273 350.948 3.5C351.441 3.72727 351.844 4.04545 352.158 4.45455C352.473 4.86364 352.668 5.34091 352.744 5.88636H351.403C351.3 5.48864 351.073 5.13636 350.721 4.82955C350.372 4.51894 349.903 4.36364 349.312 4.36364C348.789 4.36364 348.331 4.5 347.937 4.77273C347.547 5.04167 347.242 5.42235 347.022 5.91477C346.806 6.40341 346.698 6.97727 346.698 7.63636C346.698 8.31061 346.804 8.89773 347.016 9.39773C347.232 9.89773 347.535 10.286 347.925 10.5625C348.319 10.839 348.781 10.9773 349.312 10.9773C349.66 10.9773 349.977 10.9167 350.261 10.7955C350.545 10.6742 350.785 10.5 350.982 10.2727C351.179 10.0455 351.319 9.77273 351.403 9.45455H352.744C352.668 9.9697 352.48 10.4337 352.181 10.8466C351.886 11.2557 351.494 11.5814 351.005 11.8239C350.52 12.0625 349.956 12.1818 349.312 12.1818ZM354.704 12V3.27273H355.999V4.59091H356.09C356.249 4.15909 356.537 3.80871 356.954 3.53977C357.371 3.27083 357.84 3.13636 358.363 3.13636C358.461 3.13636 358.585 3.13826 358.732 3.14205C358.88 3.14583 358.992 3.15152 359.067 3.15909V4.52273C359.022 4.51136 358.918 4.49432 358.755 4.47159C358.596 4.44508 358.427 4.43182 358.249 4.43182C357.825 4.43182 357.446 4.52083 357.113 4.69886C356.783 4.87311 356.522 5.11553 356.329 5.42614C356.139 5.73295 356.045 6.08333 356.045 6.47727V12H354.704ZM360.657 12V3.27273H361.998V12H360.657ZM361.339 1.81818C361.077 1.81818 360.852 1.72917 360.663 1.55114C360.477 1.37311 360.384 1.15909 360.384 0.909091C360.384 0.659091 360.477 0.445076 360.663 0.267045C360.852 0.089015 361.077 0 361.339 0C361.6 0 361.824 0.089015 362.009 0.267045C362.199 0.445076 362.293 0.659091 362.293 0.909091C362.293 1.15909 362.199 1.37311 362.009 1.55114C361.824 1.72917 361.6 1.81818 361.339 1.81818ZM364.454 15.2727V3.27273H365.749V4.65909H365.908C366.007 4.50758 366.143 4.31439 366.317 4.07955C366.496 3.84091 366.749 3.62879 367.079 3.44318C367.412 3.25379 367.863 3.15909 368.431 3.15909C369.166 3.15909 369.814 3.3428 370.374 3.71023C370.935 4.07765 371.372 4.59848 371.687 5.27273C372.001 5.94697 372.158 6.74242 372.158 7.65909C372.158 8.58333 372.001 9.38447 371.687 10.0625C371.372 10.7367 370.937 11.2595 370.38 11.6307C369.823 11.9981 369.181 12.1818 368.454 12.1818C367.893 12.1818 367.444 12.089 367.107 11.9034C366.77 11.714 366.511 11.5 366.329 11.2614C366.147 11.0189 366.007 10.8182 365.908 10.6591H365.795V15.2727H364.454ZM365.772 7.63636C365.772 8.29545 365.869 8.87689 366.062 9.38068C366.255 9.88068 366.537 10.2727 366.908 10.5568C367.28 10.8371 367.734 10.9773 368.272 10.9773C368.833 10.9773 369.3 10.8295 369.675 10.5341C370.054 10.2348 370.338 9.83333 370.528 9.32955C370.721 8.82197 370.817 8.25758 370.817 7.63636C370.817 7.02273 370.723 6.4697 370.533 5.97727C370.348 5.48106 370.066 5.08902 369.687 4.80114C369.312 4.50947 368.84 4.36364 368.272 4.36364C367.727 4.36364 367.268 4.50189 366.897 4.77841C366.526 5.05114 366.246 5.43371 366.056 5.92614C365.867 6.41477 365.772 6.98485 365.772 7.63636ZM377.999 3.27273V4.40909H373.477V3.27273H377.999ZM374.795 1.18182H376.136V9.5C376.136 9.87879 376.191 10.1629 376.3 10.3523C376.414 10.5379 376.558 10.6629 376.732 10.7273C376.91 10.7879 377.098 10.8182 377.295 10.8182C377.442 10.8182 377.564 10.8106 377.658 10.7955C377.753 10.7765 377.829 10.7614 377.886 10.75L378.158 11.9545C378.067 11.9886 377.941 12.0227 377.778 12.0568C377.615 12.0947 377.408 12.1136 377.158 12.1136C376.78 12.1136 376.408 12.0322 376.045 11.8693C375.685 11.7064 375.386 11.4583 375.147 11.125C374.912 10.7917 374.795 10.3712 374.795 9.86364V1.18182ZM382.585 12.2045C382.031 12.2045 381.53 12.1004 381.079 11.892C380.628 11.6799 380.27 11.375 380.005 10.9773C379.74 10.5758 379.607 10.0909 379.607 9.52273C379.607 9.02273 379.706 8.61742 379.903 8.30682C380.1 7.99242 380.363 7.74621 380.692 7.56818C381.022 7.39015 381.386 7.25758 381.783 7.17045C382.185 7.07955 382.588 7.00758 382.994 6.95455C383.524 6.88636 383.954 6.83523 384.283 6.80114C384.617 6.76326 384.859 6.70076 385.011 6.61364C385.166 6.52652 385.244 6.375 385.244 6.15909V6.11364C385.244 5.55303 385.09 5.11742 384.783 4.80682C384.48 4.49621 384.02 4.34091 383.403 4.34091C382.763 4.34091 382.261 4.48106 381.897 4.76136C381.533 5.04167 381.278 5.34091 381.13 5.65909L379.857 5.20455C380.085 4.67424 380.388 4.26136 380.766 3.96591C381.149 3.66667 381.566 3.45833 382.016 3.34091C382.471 3.2197 382.918 3.15909 383.357 3.15909C383.638 3.15909 383.96 3.19318 384.323 3.26136C384.691 3.32576 385.045 3.46023 385.386 3.66477C385.73 3.86932 386.016 4.17803 386.244 4.59091C386.471 5.00379 386.585 5.55682 386.585 6.25V12H385.244V10.8182H385.175C385.085 11.0076 384.933 11.2102 384.721 11.4261C384.509 11.642 384.227 11.8258 383.874 11.9773C383.522 12.1288 383.092 12.2045 382.585 12.2045ZM382.789 11C383.319 11 383.766 10.8958 384.13 10.6875C384.497 10.4792 384.774 10.2102 384.96 9.88068C385.149 9.55114 385.244 9.20455 385.244 8.84091V7.61364C385.187 7.68182 385.062 7.74432 384.869 7.80114C384.679 7.85417 384.46 7.90151 384.21 7.94318C383.963 7.98106 383.723 8.01515 383.488 8.04545C383.257 8.07197 383.069 8.0947 382.925 8.11364C382.577 8.15909 382.251 8.23295 381.948 8.33523C381.649 8.43371 381.406 8.58333 381.221 8.78409C381.039 8.98106 380.948 9.25 380.948 9.59091C380.948 10.0568 381.121 10.4091 381.465 10.6477C381.814 10.8826 382.255 11 382.789 11ZM389.032 12V3.27273H390.327V4.59091H390.418C390.577 4.15909 390.865 3.80871 391.282 3.53977C391.699 3.27083 392.168 3.13636 392.691 3.13636C392.79 3.13636 392.913 3.13826 393.06 3.14205C393.208 3.14583 393.32 3.15152 393.396 3.15909V4.52273C393.35 4.51136 393.246 4.49432 393.083 4.47159C392.924 4.44508 392.755 4.43182 392.577 4.43182C392.153 4.43182 391.774 4.52083 391.441 4.69886C391.112 4.87311 390.85 5.11553 390.657 5.42614C390.468 5.73295 390.373 6.08333 390.373 6.47727V12H389.032ZM394.962 12.0909C394.682 12.0909 394.442 11.9905 394.241 11.7898C394.04 11.589 393.94 11.3485 393.94 11.0682C393.94 10.7879 394.04 10.5473 394.241 10.3466C394.442 10.1458 394.682 10.0455 394.962 10.0455C395.243 10.0455 395.483 10.1458 395.684 10.3466C395.885 10.5473 395.985 10.7879 395.985 11.0682C395.985 11.2538 395.938 11.4242 395.843 11.5795C395.752 11.7348 395.629 11.8598 395.474 11.9545C395.322 12.0455 395.152 12.0909 394.962 12.0909Z" fill="#495057"/>
</svg>
