<svg width="373" height="25" viewBox="0 0 373 25" fill="none" xmlns="http://www.w3.org/2000/svg">
<path d="M14.8743 1.54545V19H11.6868L4.09304 8.0142H3.9652V19H0.274858V1.54545H3.51349L11.0476 12.5227H11.201V1.54545H14.8743ZM17.8551 19V5.90909H21.4858V19H17.8551ZM19.679 4.22159C19.1392 4.22159 18.6761 4.04261 18.2898 3.68466C17.9091 3.32102 17.7188 2.88636 17.7188 2.38068C17.7188 1.88068 17.9091 1.4517 18.2898 1.09375C18.6761 0.730113 19.1392 0.548295 19.679 0.548295C20.2188 0.548295 20.679 0.730113 21.0597 1.09375C21.446 1.4517 21.6392 1.88068 21.6392 2.38068C21.6392 2.88636 21.446 3.32102 21.0597 3.68466C20.679 4.04261 20.2188 4.22159 19.679 4.22159ZM28.0249 11.4318V19H24.3942V5.90909H27.8544V8.21875H28.0078C28.2976 7.45739 28.7834 6.85511 29.4652 6.41193C30.147 5.96307 30.9737 5.73864 31.9453 5.73864C32.8544 5.73864 33.647 5.9375 34.3232 6.33523C34.9993 6.73295 35.5249 7.30114 35.8999 8.03977C36.2749 8.77273 36.4624 9.64773 36.4624 10.6648V19H32.8317V11.3125C32.8374 10.5114 32.6328 9.88636 32.218 9.4375C31.8033 8.98295 31.2322 8.75568 30.505 8.75568C30.0163 8.75568 29.5845 8.8608 29.2095 9.07102C28.8402 9.28125 28.5504 9.58807 28.3402 9.99148C28.1357 10.3892 28.0305 10.8693 28.0249 11.4318ZM45.2216 24.1818C44.0455 24.1818 43.0369 24.0199 42.196 23.696C41.3608 23.3778 40.696 22.9432 40.2017 22.392C39.7074 21.8409 39.3864 21.2216 39.2386 20.5341L42.5966 20.0824C42.6989 20.3438 42.8608 20.5881 43.0824 20.8153C43.304 21.0426 43.5966 21.2244 43.9602 21.3608C44.3295 21.5028 44.7784 21.5739 45.3068 21.5739C46.0966 21.5739 46.7472 21.3807 47.2585 20.9943C47.7756 20.6136 48.0341 19.9744 48.0341 19.0767V16.6818H47.8807C47.7216 17.0455 47.483 17.3892 47.1648 17.7131C46.8466 18.0369 46.4375 18.3011 45.9375 18.5057C45.4375 18.7102 44.8409 18.8125 44.1477 18.8125C43.1648 18.8125 42.2699 18.5852 41.4631 18.1307C40.6619 17.6705 40.0227 16.9687 39.5455 16.0256C39.0739 15.0767 38.8381 13.8778 38.8381 12.429C38.8381 10.946 39.0795 9.70739 39.5625 8.71307C40.0455 7.71875 40.6875 6.97443 41.4886 6.48011C42.2955 5.9858 43.179 5.73864 44.1392 5.73864C44.8722 5.73864 45.4858 5.86364 45.9801 6.11364C46.4744 6.35795 46.8722 6.66477 47.1733 7.03409C47.4801 7.39773 47.7159 7.75568 47.8807 8.10795H48.017V5.90909H51.6222V19.1278C51.6222 20.2415 51.3494 21.1733 50.804 21.9233C50.2585 22.6733 49.5028 23.2358 48.5369 23.6108C47.5767 23.9915 46.4716 24.1818 45.2216 24.1818ZM45.2983 16.0852C45.8835 16.0852 46.3778 15.9403 46.7812 15.6506C47.1903 15.3551 47.5028 14.9347 47.7188 14.3892C47.9403 13.8381 48.0511 13.179 48.0511 12.4119C48.0511 11.6449 47.9432 10.9801 47.7273 10.4176C47.5114 9.84943 47.1989 9.40909 46.7898 9.09659C46.3807 8.78409 45.8835 8.62784 45.2983 8.62784C44.7017 8.62784 44.1989 8.78977 43.7898 9.11364C43.3807 9.43182 43.071 9.875 42.8608 10.4432C42.6506 11.0114 42.5455 11.6676 42.5455 12.4119C42.5455 13.1676 42.6506 13.821 42.8608 14.3722C43.0767 14.9176 43.3864 15.3409 43.7898 15.642C44.1989 15.9375 44.7017 16.0852 45.2983 16.0852ZM62.9062 13.4261V5.90909H66.5369V19H63.0511V16.6222H62.9148C62.6193 17.3892 62.1278 18.0057 61.4403 18.4716C60.7585 18.9375 59.9261 19.1705 58.9432 19.1705C58.0682 19.1705 57.2983 18.9716 56.6335 18.5739C55.9688 18.1761 55.4489 17.6108 55.0739 16.8778C54.7045 16.1449 54.517 15.267 54.5114 14.2443V5.90909H58.142V13.5966C58.1477 14.3693 58.3551 14.9801 58.7642 15.429C59.1733 15.8778 59.7216 16.1023 60.4091 16.1023C60.8466 16.1023 61.2557 16.0028 61.6364 15.804C62.017 15.5994 62.3239 15.2983 62.5568 14.9006C62.7955 14.5028 62.9119 14.0114 62.9062 13.4261ZM59.233 4.22159L61.0398 0.34375H64.3977L61.7983 4.22159H59.233ZM73.0717 11.4318V19H69.4411V5.90909H72.9013V8.21875H73.0547C73.3445 7.45739 73.8303 6.85511 74.5121 6.41193C75.1939 5.96307 76.0206 5.73864 76.9922 5.73864C77.9013 5.73864 78.6939 5.9375 79.37 6.33523C80.0462 6.73295 80.5717 7.30114 80.9467 8.03977C81.3217 8.77273 81.5092 9.64773 81.5092 10.6648V19H77.8786V11.3125C77.8842 10.5114 77.6797 9.88636 77.2649 9.4375C76.8501 8.98295 76.2791 8.75568 75.5518 8.75568C75.0632 8.75568 74.6314 8.8608 74.2564 9.07102C73.8871 9.28125 73.5973 9.58807 73.3871 9.99148C73.1825 10.3892 73.0774 10.8693 73.0717 11.4318ZM89.9254 19V5.90909H93.3857V8.21875H93.5391C93.8118 7.4517 94.2663 6.84659 94.9027 6.40341C95.5391 5.96023 96.3004 5.73864 97.1868 5.73864C98.0845 5.73864 98.8487 5.96307 99.4794 6.41193C100.11 6.85511 100.531 7.45739 100.741 8.21875H100.877C101.144 7.46875 101.627 6.86932 102.326 6.42045C103.031 5.96591 103.863 5.73864 104.823 5.73864C106.045 5.73864 107.036 6.12784 107.798 6.90625C108.565 7.67898 108.948 8.77557 108.948 10.196V19H105.326V10.9119C105.326 10.1847 105.133 9.6392 104.746 9.27557C104.36 8.91193 103.877 8.73011 103.298 8.73011C102.638 8.73011 102.124 8.94034 101.755 9.3608C101.386 9.77557 101.201 10.3239 101.201 11.0057V19H97.6811V10.8352C97.6811 10.1932 97.4964 9.68182 97.1271 9.30114C96.7635 8.92045 96.2834 8.73011 95.6868 8.73011C95.2834 8.73011 94.9197 8.83239 94.5959 9.03693C94.2777 9.2358 94.0249 9.51705 93.8374 9.88068C93.6499 10.2386 93.5561 10.6591 93.5561 11.142V19H89.9254ZM117.782 19.2557C116.435 19.2557 115.276 18.983 114.305 18.4375C113.339 17.8864 112.594 17.108 112.072 16.1023C111.549 15.0909 111.288 13.8949 111.288 12.5142C111.288 11.1676 111.549 9.9858 112.072 8.96875C112.594 7.9517 113.33 7.15909 114.279 6.59091C115.234 6.02273 116.353 5.73864 117.637 5.73864C118.501 5.73864 119.305 5.87784 120.049 6.15625C120.799 6.42898 121.452 6.84091 122.009 7.39205C122.572 7.94318 123.009 8.63636 123.322 9.47159C123.634 10.3011 123.79 11.2727 123.79 12.3864V13.3835H112.737V11.1335H120.373C120.373 10.6108 120.259 10.1477 120.032 9.74432C119.805 9.34091 119.489 9.02557 119.086 8.7983C118.688 8.56534 118.225 8.44886 117.697 8.44886C117.146 8.44886 116.657 8.5767 116.231 8.83239C115.81 9.08239 115.481 9.42045 115.242 9.84659C115.004 10.267 114.881 10.7358 114.876 11.2528V13.392C114.876 14.0398 114.995 14.5994 115.234 15.071C115.478 15.5426 115.822 15.9062 116.265 16.1619C116.708 16.4176 117.234 16.5455 117.842 16.5455C118.245 16.5455 118.614 16.4886 118.95 16.375C119.285 16.2614 119.572 16.0909 119.81 15.8636C120.049 15.6364 120.231 15.358 120.356 15.0284L123.714 15.25C123.543 16.0568 123.194 16.7614 122.665 17.3636C122.143 17.9602 121.467 18.4261 120.637 18.7614C119.813 19.0909 118.862 19.2557 117.782 19.2557ZM129.79 11.4318V19H126.16V5.90909H129.62V8.21875H129.773C130.063 7.45739 130.549 6.85511 131.231 6.41193C131.913 5.96307 132.739 5.73864 133.711 5.73864C134.62 5.73864 135.413 5.9375 136.089 6.33523C136.765 6.73295 137.29 7.30114 137.665 8.03977C138.04 8.77273 138.228 9.64773 138.228 10.6648V19H134.597V11.3125C134.603 10.5114 134.398 9.88636 133.984 9.4375C133.569 8.98295 132.998 8.75568 132.271 8.75568C131.782 8.75568 131.35 8.8608 130.975 9.07102C130.606 9.28125 130.316 9.58807 130.106 9.99148C129.901 10.3892 129.796 10.8693 129.79 11.4318ZM151.982 9.64205L148.658 9.84659C148.601 9.5625 148.479 9.30682 148.291 9.07955C148.104 8.84659 147.857 8.66193 147.55 8.52557C147.249 8.38352 146.888 8.3125 146.467 8.3125C145.905 8.3125 145.43 8.43182 145.044 8.67045C144.658 8.90341 144.464 9.21591 144.464 9.60795C144.464 9.92045 144.589 10.1847 144.839 10.4006C145.089 10.6165 145.518 10.7898 146.126 10.9205L148.496 11.3977C149.768 11.6591 150.717 12.0795 151.342 12.6591C151.967 13.2386 152.28 14 152.28 14.9432C152.28 15.8011 152.027 16.554 151.521 17.2017C151.021 17.8494 150.334 18.3551 149.459 18.7188C148.589 19.0767 147.587 19.2557 146.45 19.2557C144.717 19.2557 143.337 18.8949 142.308 18.1733C141.286 17.446 140.686 16.4574 140.51 15.2074L144.081 15.0199C144.189 15.5483 144.45 15.9517 144.865 16.2301C145.28 16.5028 145.811 16.6392 146.459 16.6392C147.095 16.6392 147.607 16.517 147.993 16.2727C148.385 16.0227 148.584 15.7017 148.589 15.3097C148.584 14.9801 148.445 14.7102 148.172 14.5C147.899 14.2841 147.479 14.1193 146.911 14.0057L144.643 13.554C143.365 13.2983 142.413 12.8551 141.788 12.2244C141.169 11.5937 140.859 10.7898 140.859 9.8125C140.859 8.97159 141.087 8.24716 141.541 7.6392C142.001 7.03125 142.646 6.5625 143.476 6.23295C144.311 5.90341 145.288 5.73864 146.408 5.73864C148.061 5.73864 149.362 6.08807 150.311 6.78693C151.266 7.4858 151.822 8.4375 151.982 9.64205ZM158.299 19.2472C157.464 19.2472 156.719 19.1023 156.066 18.8125C155.413 18.517 154.896 18.0824 154.515 17.5085C154.14 16.929 153.952 16.2074 153.952 15.3438C153.952 14.6165 154.086 14.0057 154.353 13.5114C154.62 13.017 154.984 12.6193 155.444 12.3182C155.904 12.017 156.427 11.7898 157.012 11.6364C157.603 11.483 158.222 11.375 158.87 11.3125C159.631 11.233 160.245 11.1591 160.711 11.0909C161.177 11.017 161.515 10.9091 161.725 10.767C161.935 10.625 162.04 10.4148 162.04 10.1364V10.0852C162.04 9.54545 161.87 9.12784 161.529 8.83239C161.194 8.53693 160.717 8.3892 160.097 8.3892C159.444 8.3892 158.924 8.53409 158.538 8.82386C158.151 9.10795 157.896 9.46591 157.771 9.89773L154.413 9.625C154.583 8.82955 154.918 8.14205 155.418 7.5625C155.918 6.97727 156.563 6.52841 157.353 6.21591C158.148 5.89773 159.069 5.73864 160.114 5.73864C160.842 5.73864 161.538 5.82386 162.202 5.99432C162.873 6.16477 163.467 6.42898 163.984 6.78693C164.506 7.14489 164.918 7.60511 165.219 8.16761C165.521 8.72443 165.671 9.39205 165.671 10.1705V19H162.228V17.1847H162.126C161.915 17.5938 161.634 17.9545 161.282 18.267C160.93 18.5739 160.506 18.8153 160.012 18.9915C159.518 19.1619 158.947 19.2472 158.299 19.2472ZM159.339 16.7415C159.873 16.7415 160.344 16.6364 160.754 16.4261C161.163 16.2102 161.484 15.9205 161.717 15.5568C161.95 15.1932 162.066 14.7812 162.066 14.321V12.9318C161.952 13.0057 161.796 13.0739 161.597 13.1364C161.404 13.1932 161.185 13.2472 160.941 13.2983C160.697 13.3437 160.452 13.3864 160.208 13.4261C159.964 13.4602 159.742 13.4915 159.543 13.5199C159.117 13.5824 158.745 13.6818 158.427 13.8182C158.109 13.9545 157.862 14.1392 157.685 14.3722C157.509 14.5994 157.421 14.8835 157.421 15.2244C157.421 15.7188 157.6 16.0966 157.958 16.358C158.322 16.6136 158.782 16.7415 159.339 16.7415ZM168.488 5.90909H172.119V19.6477C172.119 20.6591 171.92 21.4773 171.522 22.1023C171.124 22.7273 170.553 23.1847 169.809 23.4744C169.07 23.7642 168.187 23.9091 167.158 23.9091C167.033 23.9091 166.914 23.9063 166.8 23.9006C166.681 23.9006 166.556 23.8977 166.425 23.892V21.054C166.522 21.0597 166.607 21.0625 166.681 21.0625C166.749 21.0682 166.823 21.071 166.903 21.071C167.488 21.071 167.897 20.946 168.13 20.696C168.369 20.4517 168.488 20.0824 168.488 19.5881V5.90909ZM170.295 4.22159C169.761 4.22159 169.3 4.04261 168.914 3.68466C168.528 3.32102 168.335 2.88636 168.335 2.38068C168.335 1.88068 168.528 1.4517 168.914 1.09375C169.3 0.730113 169.761 0.548295 170.295 0.548295C170.84 0.548295 171.303 0.730113 171.684 1.09375C172.07 1.4517 172.263 1.88068 172.263 2.38068C172.263 2.88636 172.07 3.32102 171.684 3.68466C171.303 4.04261 170.84 4.22159 170.295 4.22159ZM180.993 19.2557C179.646 19.2557 178.487 18.983 177.516 18.4375C176.55 17.8864 175.805 17.108 175.283 16.1023C174.76 15.0909 174.499 13.8949 174.499 12.5142C174.499 11.1676 174.76 9.9858 175.283 8.96875C175.805 7.9517 176.541 7.15909 177.49 6.59091C178.445 6.02273 179.564 5.73864 180.848 5.73864C181.712 5.73864 182.516 5.87784 183.26 6.15625C184.01 6.42898 184.663 6.84091 185.22 7.39205C185.783 7.94318 186.22 8.63636 186.533 9.47159C186.845 10.3011 187.001 11.2727 187.001 12.3864V13.3835H175.947V11.1335H183.584C183.584 10.6108 183.47 10.1477 183.243 9.74432C183.016 9.34091 182.7 9.02557 182.297 8.7983C181.899 8.56534 181.436 8.44886 180.908 8.44886C180.357 8.44886 179.868 8.5767 179.442 8.83239C179.021 9.08239 178.692 9.42045 178.453 9.84659C178.214 10.267 178.092 10.7358 178.087 11.2528V13.392C178.087 14.0398 178.206 14.5994 178.445 15.071C178.689 15.5426 179.033 15.9062 179.476 16.1619C179.919 16.4176 180.445 16.5455 181.053 16.5455C181.456 16.5455 181.825 16.4886 182.161 16.375C182.496 16.2614 182.783 16.0909 183.021 15.8636C183.26 15.6364 183.442 15.358 183.567 15.0284L186.925 15.25C186.754 16.0568 186.405 16.7614 185.876 17.3636C185.354 17.9602 184.678 18.4261 183.848 18.7614C183.024 19.0909 182.072 19.2557 180.993 19.2557ZM201.965 5.90909V8.63636H193.886V5.90909H201.965ZM195.735 19V4.96307C195.735 4.0142 195.92 3.22727 196.289 2.60227C196.664 1.97727 197.175 1.50852 197.823 1.19602C198.471 0.883522 199.207 0.727272 200.031 0.727272C200.587 0.727272 201.096 0.769886 201.556 0.855114C202.022 0.940341 202.369 1.01705 202.596 1.08523L201.948 3.8125C201.806 3.76705 201.63 3.72443 201.42 3.68466C201.215 3.64489 201.005 3.625 200.789 3.625C200.255 3.625 199.883 3.75 199.673 4C199.462 4.24432 199.357 4.58807 199.357 5.03125V19H195.735ZM212.578 13.4261V5.90909H216.209V19H212.723V16.6222H212.587C212.291 17.3892 211.8 18.0057 211.112 18.4716C210.43 18.9375 209.598 19.1705 208.615 19.1705C207.74 19.1705 206.97 18.9716 206.305 18.5739C205.641 18.1761 205.121 17.6108 204.746 16.8778C204.376 16.1449 204.189 15.267 204.183 14.2443V5.90909H207.814V13.5966C207.82 14.3693 208.027 14.9801 208.436 15.429C208.845 15.8778 209.393 16.1023 210.081 16.1023C210.518 16.1023 210.928 16.0028 211.308 15.804C211.689 15.5994 211.996 15.2983 212.229 14.9006C212.467 14.5028 212.584 14.0114 212.578 13.4261ZM225.079 19.2557C223.732 19.2557 222.573 18.983 221.602 18.4375C220.636 17.8864 219.891 17.108 219.369 16.1023C218.846 15.0909 218.585 13.8949 218.585 12.5142C218.585 11.1676 218.846 9.9858 219.369 8.96875C219.891 7.9517 220.627 7.15909 221.576 6.59091C222.531 6.02273 223.65 5.73864 224.934 5.73864C225.798 5.73864 226.602 5.87784 227.346 6.15625C228.096 6.42898 228.749 6.84091 229.306 7.39205C229.869 7.94318 230.306 8.63636 230.619 9.47159C230.931 10.3011 231.087 11.2727 231.087 12.3864V13.3835H220.033V11.1335H227.67C227.67 10.6108 227.556 10.1477 227.329 9.74432C227.102 9.34091 226.786 9.02557 226.383 8.7983C225.985 8.56534 225.522 8.44886 224.994 8.44886C224.442 8.44886 223.954 8.5767 223.528 8.83239C223.107 9.08239 222.778 9.42045 222.539 9.84659C222.3 10.267 222.178 10.7358 222.173 11.2528V13.392C222.173 14.0398 222.292 14.5994 222.531 15.071C222.775 15.5426 223.119 15.9062 223.562 16.1619C224.005 16.4176 224.531 16.5455 225.138 16.5455C225.542 16.5455 225.911 16.4886 226.246 16.375C226.582 16.2614 226.869 16.0909 227.107 15.8636C227.346 15.6364 227.528 15.358 227.653 15.0284L231.011 15.25C230.84 16.0568 230.491 16.7614 229.962 17.3636C229.44 17.9602 228.763 18.4261 227.934 18.7614C227.11 19.0909 226.158 19.2557 225.079 19.2557ZM244.977 19.2557C243.631 19.2557 242.472 18.983 241.5 18.4375C240.534 17.8864 239.79 17.108 239.267 16.1023C238.744 15.0909 238.483 13.8949 238.483 12.5142C238.483 11.1676 238.744 9.9858 239.267 8.96875C239.79 7.9517 240.526 7.15909 241.474 6.59091C242.429 6.02273 243.548 5.73864 244.832 5.73864C245.696 5.73864 246.5 5.87784 247.244 6.15625C247.994 6.42898 248.648 6.84091 249.205 7.39205C249.767 7.94318 250.205 8.63636 250.517 9.47159C250.83 10.3011 250.986 11.2727 250.986 12.3864V13.3835H239.932V11.1335H247.568C247.568 10.6108 247.455 10.1477 247.227 9.74432C247 9.34091 246.685 9.02557 246.281 8.7983C245.884 8.56534 245.42 8.44886 244.892 8.44886C244.341 8.44886 243.852 8.5767 243.426 8.83239C243.006 9.08239 242.676 9.42045 242.438 9.84659C242.199 10.267 242.077 10.7358 242.071 11.2528V13.392C242.071 14.0398 242.19 14.5994 242.429 15.071C242.673 15.5426 243.017 15.9062 243.46 16.1619C243.903 16.4176 244.429 16.5455 245.037 16.5455C245.44 16.5455 245.81 16.4886 246.145 16.375C246.48 16.2614 246.767 16.0909 247.006 15.8636C247.244 15.6364 247.426 15.358 247.551 15.0284L250.909 15.25C250.739 16.0568 250.389 16.7614 249.861 17.3636C249.338 17.9602 248.662 18.4261 247.832 18.7614C247.009 19.0909 246.057 19.2557 244.977 19.2557ZM256.986 11.4318V19H253.355V5.90909H256.815V8.21875H256.969C257.259 7.45739 257.744 6.85511 258.426 6.41193C259.108 5.96307 259.935 5.73864 260.906 5.73864C261.815 5.73864 262.608 5.9375 263.284 6.33523C263.96 6.73295 264.486 7.30114 264.861 8.03977C265.236 8.77273 265.423 9.64773 265.423 10.6648V19H261.793V11.3125C261.798 10.5114 261.594 9.88636 261.179 9.4375C260.764 8.98295 260.193 8.75568 259.466 8.75568C258.977 8.75568 258.545 8.8608 258.17 9.07102C257.801 9.28125 257.511 9.58807 257.301 9.99148C257.097 10.3892 256.991 10.8693 256.986 11.4318ZM274.2 19.2557C272.859 19.2557 271.705 18.9716 270.739 18.4034C269.779 17.8295 269.04 17.0341 268.523 16.017C268.012 15 267.756 13.8295 267.756 12.5057C267.756 11.1648 268.015 9.98864 268.532 8.97727C269.055 7.96023 269.796 7.16761 270.756 6.59943C271.717 6.02557 272.859 5.73864 274.183 5.73864C275.325 5.73864 276.325 5.94602 277.183 6.36079C278.04 6.77557 278.719 7.35795 279.219 8.10795C279.719 8.85795 279.995 9.73864 280.046 10.75H276.62C276.523 10.0966 276.268 9.57102 275.853 9.1733C275.444 8.76989 274.907 8.56818 274.242 8.56818C273.68 8.56818 273.188 8.72159 272.768 9.02841C272.353 9.32955 272.029 9.76989 271.796 10.3494C271.563 10.929 271.447 11.6307 271.447 12.4545C271.447 13.2898 271.56 14 271.788 14.5852C272.021 15.1705 272.347 15.6165 272.768 15.9233C273.188 16.2301 273.68 16.3835 274.242 16.3835C274.657 16.3835 275.029 16.2983 275.359 16.1278C275.694 15.9574 275.969 15.7102 276.185 15.3864C276.407 15.0568 276.552 14.6619 276.62 14.2017H280.046C279.989 15.2017 279.717 16.0824 279.228 16.8438C278.745 17.5994 278.077 18.1903 277.225 18.6165C276.373 19.0426 275.364 19.2557 274.2 19.2557ZM288.286 19.2557C286.962 19.2557 285.817 18.9744 284.851 18.4119C283.891 17.8437 283.149 17.054 282.626 16.0426C282.104 15.0256 281.842 13.8466 281.842 12.5057C281.842 11.1534 282.104 9.97159 282.626 8.96023C283.149 7.94318 283.891 7.15341 284.851 6.59091C285.817 6.02273 286.962 5.73864 288.286 5.73864C289.609 5.73864 290.751 6.02273 291.712 6.59091C292.678 7.15341 293.422 7.94318 293.945 8.96023C294.467 9.97159 294.729 11.1534 294.729 12.5057C294.729 13.8466 294.467 15.0256 293.945 16.0426C293.422 17.054 292.678 17.8437 291.712 18.4119C290.751 18.9744 289.609 19.2557 288.286 19.2557ZM288.303 16.4432C288.905 16.4432 289.408 16.2727 289.811 15.9318C290.214 15.5852 290.518 15.1136 290.723 14.517C290.933 13.9205 291.038 13.2415 291.038 12.4801C291.038 11.7188 290.933 11.0398 290.723 10.4432C290.518 9.84659 290.214 9.375 289.811 9.02841C289.408 8.68182 288.905 8.50852 288.303 8.50852C287.695 8.50852 287.183 8.68182 286.768 9.02841C286.359 9.375 286.05 9.84659 285.839 10.4432C285.635 11.0398 285.533 11.7188 285.533 12.4801C285.533 13.2415 285.635 13.9205 285.839 14.517C286.05 15.1136 286.359 15.5852 286.768 15.9318C287.183 16.2727 287.695 16.4432 288.303 16.4432ZM300.72 11.4318V19H297.089V5.90909H300.55V8.21875H300.703C300.993 7.45739 301.479 6.85511 302.161 6.41193C302.842 5.96307 303.669 5.73864 304.641 5.73864C305.55 5.73864 306.342 5.9375 307.018 6.33523C307.695 6.73295 308.22 7.30114 308.595 8.03977C308.97 8.77273 309.158 9.64773 309.158 10.6648V19H305.527V11.3125C305.533 10.5114 305.328 9.88636 304.913 9.4375C304.499 8.98295 303.928 8.75568 303.2 8.75568C302.712 8.75568 302.28 8.8608 301.905 9.07102C301.536 9.28125 301.246 9.58807 301.036 9.99148C300.831 10.3892 300.726 10.8693 300.72 11.4318ZM318.982 5.90909V8.63636H311.099V5.90909H318.982ZM312.888 2.77273H316.519V14.9773C316.519 15.3125 316.57 15.5739 316.673 15.7614C316.775 15.9432 316.917 16.071 317.099 16.1449C317.286 16.2187 317.502 16.2557 317.746 16.2557C317.917 16.2557 318.087 16.2415 318.258 16.2131C318.428 16.179 318.559 16.1534 318.65 16.1364L319.221 18.8381C319.039 18.8949 318.783 18.9602 318.454 19.0341C318.124 19.1136 317.724 19.1619 317.252 19.179C316.377 19.2131 315.61 19.0966 314.951 18.8295C314.298 18.5625 313.789 18.1477 313.425 17.5852C313.062 17.0227 312.883 16.3125 312.888 15.4545V2.77273ZM321.347 19V5.90909H324.867V8.19318H325.004C325.242 7.38068 325.643 6.76705 326.205 6.35227C326.768 5.93182 327.415 5.72159 328.148 5.72159C328.33 5.72159 328.526 5.73295 328.737 5.75568C328.947 5.77841 329.131 5.80966 329.29 5.84943V9.07102C329.12 9.01989 328.884 8.97443 328.583 8.93466C328.282 8.89489 328.006 8.875 327.756 8.875C327.222 8.875 326.745 8.99148 326.325 9.22443C325.91 9.4517 325.58 9.76989 325.336 10.179C325.097 10.5881 324.978 11.0597 324.978 11.5938V19H321.347ZM334.526 19.2472C333.69 19.2472 332.946 19.1023 332.293 18.8125C331.639 18.517 331.122 18.0824 330.741 17.5085C330.366 16.929 330.179 16.2074 330.179 15.3438C330.179 14.6165 330.313 14.0057 330.58 13.5114C330.847 13.017 331.21 12.6193 331.67 12.3182C332.131 12.017 332.653 11.7898 333.239 11.6364C333.83 11.483 334.449 11.375 335.097 11.3125C335.858 11.233 336.472 11.1591 336.938 11.0909C337.403 11.017 337.741 10.9091 337.952 10.767C338.162 10.625 338.267 10.4148 338.267 10.1364V10.0852C338.267 9.54545 338.097 9.12784 337.756 8.83239C337.42 8.53693 336.943 8.3892 336.324 8.3892C335.67 8.3892 335.151 8.53409 334.764 8.82386C334.378 9.10795 334.122 9.46591 333.997 9.89773L330.639 9.625C330.81 8.82955 331.145 8.14205 331.645 7.5625C332.145 6.97727 332.79 6.52841 333.58 6.21591C334.375 5.89773 335.295 5.73864 336.341 5.73864C337.068 5.73864 337.764 5.82386 338.429 5.99432C339.099 6.16477 339.693 6.42898 340.21 6.78693C340.733 7.14489 341.145 7.60511 341.446 8.16761C341.747 8.72443 341.898 9.39205 341.898 10.1705V19H338.455V17.1847H338.352C338.142 17.5938 337.861 17.9545 337.509 18.267C337.156 18.5739 336.733 18.8153 336.239 18.9915C335.744 19.1619 335.173 19.2472 334.526 19.2472ZM335.565 16.7415C336.099 16.7415 336.571 16.6364 336.98 16.4261C337.389 16.2102 337.71 15.9205 337.943 15.5568C338.176 15.1932 338.293 14.7812 338.293 14.321V12.9318C338.179 13.0057 338.023 13.0739 337.824 13.1364C337.631 13.1932 337.412 13.2472 337.168 13.2983C336.923 13.3437 336.679 13.3864 336.435 13.4261C336.19 13.4602 335.969 13.4915 335.77 13.5199C335.344 13.5824 334.972 13.6818 334.653 13.8182C334.335 13.9545 334.088 14.1392 333.912 14.3722C333.736 14.5994 333.648 14.8835 333.648 15.2244C333.648 15.7188 333.827 16.0966 334.185 16.358C334.548 16.6136 335.009 16.7415 335.565 16.7415ZM349.538 19.2131C348.544 19.2131 347.643 18.9574 346.837 18.446C346.036 17.929 345.399 17.1705 344.928 16.1705C344.462 15.1648 344.229 13.9318 344.229 12.4716C344.229 10.9716 344.47 9.72443 344.953 8.73011C345.436 7.73011 346.078 6.98295 346.879 6.48864C347.686 5.98864 348.57 5.73864 349.53 5.73864C350.263 5.73864 350.874 5.86364 351.362 6.11364C351.857 6.35795 352.254 6.66477 352.555 7.03409C352.862 7.39773 353.095 7.75568 353.254 8.10795H353.365V1.54545H356.987V19H353.408V16.9034H353.254C353.084 17.267 352.842 17.6278 352.53 17.9858C352.223 18.3381 351.822 18.6307 351.328 18.8636C350.839 19.0966 350.243 19.2131 349.538 19.2131ZM350.689 16.3239C351.274 16.3239 351.768 16.1648 352.172 15.8466C352.581 15.5227 352.893 15.071 353.109 14.4915C353.331 13.9119 353.442 13.233 353.442 12.4545C353.442 11.6761 353.334 11 353.118 10.4261C352.902 9.85227 352.589 9.40909 352.18 9.09659C351.771 8.78409 351.274 8.62784 350.689 8.62784C350.092 8.62784 349.589 8.78977 349.18 9.11364C348.771 9.4375 348.462 9.88636 348.251 10.4602C348.041 11.0341 347.936 11.6989 347.936 12.4545C347.936 13.2159 348.041 13.8892 348.251 14.4744C348.467 15.054 348.777 15.5085 349.18 15.8381C349.589 16.1619 350.092 16.3239 350.689 16.3239ZM365.887 19.2557C364.563 19.2557 363.418 18.9744 362.452 18.4119C361.492 17.8437 360.751 17.054 360.228 16.0426C359.705 15.0256 359.444 13.8466 359.444 12.5057C359.444 11.1534 359.705 9.97159 360.228 8.96023C360.751 7.94318 361.492 7.15341 362.452 6.59091C363.418 6.02273 364.563 5.73864 365.887 5.73864C367.211 5.73864 368.353 6.02273 369.313 6.59091C370.279 7.15341 371.023 7.94318 371.546 8.96023C372.069 9.97159 372.33 11.1534 372.33 12.5057C372.33 13.8466 372.069 15.0256 371.546 16.0426C371.023 17.054 370.279 17.8437 369.313 18.4119C368.353 18.9744 367.211 19.2557 365.887 19.2557ZM365.904 16.4432C366.506 16.4432 367.009 16.2727 367.413 15.9318C367.816 15.5852 368.12 15.1136 368.325 14.517C368.535 13.9205 368.64 13.2415 368.64 12.4801C368.64 11.7188 368.535 11.0398 368.325 10.4432C368.12 9.84659 367.816 9.375 367.413 9.02841C367.009 8.68182 366.506 8.50852 365.904 8.50852C365.296 8.50852 364.785 8.68182 364.37 9.02841C363.961 9.375 363.651 9.84659 363.441 10.4432C363.237 11.0398 363.134 11.7188 363.134 12.4801C363.134 13.2415 363.237 13.9205 363.441 14.517C363.651 15.1136 363.961 15.5852 364.37 15.9318C364.785 16.2727 365.296 16.4432 365.904 16.4432Z" fill="#343A40"/>
</svg>
